<svg width="44" height="44" viewBox="0 0 44 44" fill="none" xmlns="http://www.w3.org/2000/svg">
<path fill-rule="evenodd" clip-rule="evenodd" d="M22.0002 16.1338C22.2947 16.1338 22.5335 16.3726 22.5335 16.6671V26.0462L25.8897 22.69C26.098 22.4817 26.4357 22.4817 26.644 22.69C26.8523 22.8983 26.8523 23.236 26.644 23.4442L22.3773 27.711C22.2773 27.8109 22.1416 27.8671 22.0002 27.8671C21.8587 27.8671 21.7231 27.8109 21.6231 27.711L17.3564 23.4442C17.1481 23.236 17.1481 22.8983 17.3564 22.69C17.5647 22.4817 17.9024 22.4817 18.1107 22.69L21.4669 26.0462V16.6671C21.4669 16.3726 21.7056 16.1338 22.0002 16.1338Z" fill="#371F0E"/>
</svg>
