<svg width="45" height="44" viewBox="0 0 45 44" fill="none" xmlns="http://www.w3.org/2000/svg">
<path fill-rule="evenodd" clip-rule="evenodd" d="M22.5002 16.1338C22.7947 16.1338 23.0335 16.3726 23.0335 16.6671V26.0462L26.3897 22.69C26.598 22.4817 26.9357 22.4817 27.144 22.69C27.3523 22.8983 27.3523 23.236 27.144 23.4442L22.8773 27.711C22.7773 27.8109 22.6416 27.8671 22.5002 27.8671C22.3587 27.8671 22.2231 27.8109 22.1231 27.711L17.8564 23.4442C17.6481 23.236 17.6481 22.8983 17.8564 22.69C18.0647 22.4817 18.4024 22.4817 18.6107 22.69L21.9669 26.0462V16.6671C21.9669 16.3726 22.2056 16.1338 22.5002 16.1338Z" fill="#F6F2E9"/>
</svg>
