<svg width="187" height="190" viewBox="0 0 187 190" fill="none" xmlns="http://www.w3.org/2000/svg">
<path d="M93.525 1L97.1361 74.6733L125.854 6.67191L103.923 77.1311L154.285 23.0035L109.455 81.7501L175.386 48.025L113.066 87.9733L186.614 78.7184L114.321 95.05L186.614 111.382L113.066 102.127L175.386 142.075L109.455 108.35L154.285 167.096L103.923 112.969L125.854 183.428L97.1361 115.427L93.525 189.1L89.9139 115.427L61.1955 183.428L83.1273 112.969L32.7655 167.096L77.5947 108.35L11.6639 142.075L73.9836 102.127L0.43605 111.382L72.7295 95.05L0.43605 78.7184L73.9836 87.9733L11.6639 48.025L77.5947 81.7501L32.7655 23.0035L83.1273 77.1311L61.1955 6.67191L89.9139 74.6733L93.525 1Z" stroke="#371F0E" stroke-opacity="0.2"/>
</svg>
