<svg width="45" height="44" viewBox="0 0 45 44" fill="none" xmlns="http://www.w3.org/2000/svg">
<path d="M21.4206 9.28786C20.5396 9.26958 19.6607 9.68055 19.0692 10.3947C17.9958 11.6951 17.8518 13.9199 19.398 15.2588L22.6715 18.0924C22.9926 18.3702 23.4729 18.3702 23.7941 18.0924L27.0675 15.2588C28.6142 13.9199 28.4701 11.6952 27.394 10.3947C26.8055 9.68024 25.9087 9.26709 24.9762 9.28786C24.2999 9.30024 23.7375 9.55233 23.2271 10.0351C22.7106 9.55202 22.1369 9.30303 21.4206 9.28786Z" fill="#F6F2E9"/>
<path fill-rule="evenodd" clip-rule="evenodd" d="M21.3165 19.5454C21.0275 19.5165 20.7094 19.6017 20.5069 19.8495C20.304 20.0976 20.2311 20.4579 20.2781 20.9253C20.4312 22.4376 20.2122 24.3037 19.0319 25.5138L17.8737 26.7014C17.2042 27.3873 16.8834 28.219 16.7983 29.1473C16.67 30.5438 17.3735 31.9598 18.4354 33.0365C19.4969 34.1149 20.8965 34.8283 22.2763 34.6975C23.3736 34.594 24.0652 34.2016 25.2152 33.0311L26.7534 31.4665C27.0857 31.1278 27.1281 30.6044 27.007 30.2282C26.8669 29.7946 26.5387 29.4199 26.0236 29.2698C26.343 28.9174 26.4369 28.4089 26.2837 27.9323C26.1268 27.4404 25.7374 27.0465 25.2498 26.8868C25.1271 26.8456 25.0018 26.8275 24.8778 26.8207C25.0196 26.5108 25.0401 26.1475 24.9299 25.8006C24.7731 25.3087 24.3849 24.9162 23.8974 24.7551C23.7815 24.7167 23.6631 24.6958 23.5463 24.6863L25.6175 22.5003C26.1889 21.8823 26.0979 21.0516 25.6366 20.6165C25.0636 20.0763 24.2666 20.181 23.7885 20.6686L23.0338 21.4385C22.9977 21.1188 22.8807 20.8476 22.755 20.5912C22.4762 20.0217 21.8977 19.6047 21.3165 19.5454ZM25.2582 20.987C25.5294 21.26 25.6329 21.7033 25.2293 22.14L20.8907 26.7162C20.6427 26.9698 21.0219 27.3415 21.2699 27.0895L22.9512 25.3143C23.1193 25.1381 23.462 25.1699 23.7308 25.2594C24.0501 25.3641 24.3216 25.6367 24.4265 25.9632C24.5313 26.2896 24.4582 26.6034 24.2597 26.8044L22.6193 28.4695C22.3713 28.7215 22.75 29.0935 22.998 28.84L24.2651 27.5565C24.4617 27.3554 24.7651 27.2838 25.0843 27.3886C25.4022 27.4934 25.6753 27.7686 25.7784 28.0951C25.8831 28.4212 25.8101 28.7339 25.6131 28.934L24.3459 30.2202C24.0966 30.4725 24.4736 30.8442 24.722 30.5936L25.3275 29.9807C25.5108 29.7947 25.6941 29.726 25.9021 29.784C26.18 29.861 26.4212 30.1113 26.5024 30.3953C26.5867 30.686 26.5301 30.9367 26.3731 31.0947L24.836 32.661C23.7148 33.8026 23.2301 34.0767 22.2259 34.1717C21.0637 34.2819 19.7911 33.6578 18.8118 32.6651C17.8313 31.6706 17.2156 30.3802 17.3243 29.1958C17.4015 28.3554 17.6701 27.6655 18.2512 27.0718L24.1673 21.041C24.5325 20.6676 24.969 20.698 25.2582 20.987ZM21.3071 20.11C21.4145 20.1168 21.5345 20.151 21.6625 20.2134C22.3556 20.5456 22.6017 21.4681 22.4724 22.0123L20.5278 23.9956C20.8653 22.9559 20.8432 21.84 20.806 20.8731C20.7836 20.3273 20.9875 20.0909 21.3071 20.11Z" fill="#F6F2E9"/>
</svg>
