<svg width="44" height="44" viewBox="0 0 44 44" fill="none" xmlns="http://www.w3.org/2000/svg">
<path d="M20.9206 9.28786C20.0396 9.26958 19.1607 9.68055 18.5692 10.3947C17.4958 11.6951 17.3518 13.9199 18.898 15.2588L22.1715 18.0924C22.4926 18.3702 22.9729 18.3702 23.2941 18.0924L26.5675 15.2588C28.1142 13.9199 27.9701 11.6952 26.894 10.3947C26.3055 9.68024 25.4087 9.26709 24.4762 9.28786C23.7999 9.30024 23.2375 9.55233 22.7271 10.0351C22.2106 9.55202 21.6369 9.30303 20.9206 9.28786Z" fill="#371F0E"/>
<path fill-rule="evenodd" clip-rule="evenodd" d="M20.8165 19.5454C20.5275 19.5165 20.2094 19.6017 20.0069 19.8495C19.804 20.0976 19.7311 20.4579 19.7781 20.9253C19.9312 22.4376 19.7122 24.3037 18.5319 25.5138L17.3737 26.7014C16.7042 27.3873 16.3834 28.219 16.2983 29.1473C16.17 30.5438 16.8735 31.9598 17.9354 33.0365C18.9969 34.1149 20.3965 34.8283 21.7763 34.6975C22.8736 34.594 23.5652 34.2016 24.7152 33.0311L26.2534 31.4665C26.5857 31.1278 26.6281 30.6044 26.507 30.2282C26.3669 29.7946 26.0387 29.4199 25.5236 29.2698C25.843 28.9174 25.9369 28.4089 25.7837 27.9323C25.6268 27.4404 25.2374 27.0465 24.7498 26.8868C24.6271 26.8456 24.5018 26.8275 24.3778 26.8207C24.5196 26.5108 24.5401 26.1475 24.4299 25.8006C24.2731 25.3087 23.8849 24.9162 23.3974 24.7551C23.2815 24.7167 23.1631 24.6958 23.0463 24.6863L25.1175 22.5003C25.6889 21.8823 25.5979 21.0516 25.1366 20.6165C24.5636 20.0763 23.7666 20.181 23.2885 20.6686L22.5338 21.4385C22.4977 21.1188 22.3807 20.8476 22.255 20.5912C21.9762 20.0217 21.3977 19.6047 20.8165 19.5454ZM24.7582 20.987C25.0294 21.26 25.1329 21.7033 24.7293 22.14L20.3907 26.7162C20.1427 26.9698 20.5219 27.3415 20.7699 27.0895L22.4512 25.3143C22.6193 25.1381 22.962 25.1699 23.2308 25.2594C23.5501 25.3641 23.8216 25.6367 23.9265 25.9632C24.0313 26.2896 23.9582 26.6034 23.7597 26.8044L22.1193 28.4695C21.8713 28.7215 22.25 29.0935 22.498 28.84L23.7651 27.5565C23.9617 27.3554 24.2651 27.2838 24.5843 27.3886C24.9022 27.4934 25.1753 27.7686 25.2784 28.0951C25.3831 28.4212 25.3101 28.7339 25.1131 28.934L23.8459 30.2202C23.5966 30.4725 23.9736 30.8442 24.222 30.5936L24.8275 29.9807C25.0108 29.7947 25.1941 29.726 25.4021 29.784C25.68 29.861 25.9212 30.1113 26.0024 30.3953C26.0867 30.686 26.0301 30.9367 25.8731 31.0947L24.336 32.661C23.2148 33.8026 22.7301 34.0767 21.7259 34.1717C20.5637 34.2819 19.2911 33.6578 18.3118 32.6651C17.3313 31.6706 16.7156 30.3802 16.8243 29.1958C16.9015 28.3554 17.1701 27.6655 17.7512 27.0718L23.6673 21.041C24.0325 20.6676 24.469 20.698 24.7582 20.987ZM20.8071 20.11C20.9145 20.1168 21.0345 20.151 21.1625 20.2134C21.8556 20.5456 22.1017 21.4681 21.9724 22.0123L20.0278 23.9956C20.3653 22.9559 20.3432 21.84 20.306 20.8731C20.2836 20.3273 20.4875 20.0909 20.8071 20.11Z" fill="#371F0E"/>
</svg>
